<svg width="17" height="18" viewBox="0 0 17 18" fill="none" xmlns="http://www.w3.org/2000/svg">
<path d="M12.041 16.6149H4.95768C1.83393 16.6149 0.884766 15.6657 0.884766 12.542V5.45866C0.884766 2.33491 1.83393 1.38574 4.95768 1.38574H6.02018C7.25977 1.38574 7.64935 1.78949 8.14518 2.44824L9.20768 3.86491C9.44143 4.17658 9.47685 4.21908 9.91602 4.21908H12.041C15.1648 4.21908 16.1139 5.16824 16.1139 8.29199V12.542C16.1139 15.6657 15.1648 16.6149 12.041 16.6149ZM4.95768 2.44824C2.42185 2.44824 1.94727 2.92991 1.94727 5.45866V12.542C1.94727 15.0707 2.42185 15.5524 4.95768 15.5524H12.041C14.5768 15.5524 15.0514 15.0707 15.0514 12.542V8.29199C15.0514 5.76324 14.5768 5.28158 12.041 5.28158H9.91602C9.00935 5.28158 8.71185 4.96991 8.35768 4.50241L7.29518 3.08574C6.92685 2.59699 6.81352 2.44824 6.02018 2.44824H4.95768Z" fill="#7AC943"/>
<path d="M14.166 5.55074C13.8756 5.55074 13.6348 5.30991 13.6348 5.01949V4.04199C13.6348 2.92283 13.1602 2.44824 12.041 2.44824H5.66602C5.3756 2.44824 5.13477 2.20741 5.13477 1.91699C5.13477 1.62658 5.3756 1.38574 5.66602 1.38574H12.041C13.7552 1.38574 14.6973 2.32783 14.6973 4.04199V5.01949C14.6973 5.30991 14.4564 5.55074 14.166 5.55074Z" fill="#7AC943"/>
</svg>
