<svg width="8" height="9" viewBox="0 0 8 9" fill="none" xmlns="http://www.w3.org/2000/svg">
<path fill-rule="evenodd" clip-rule="evenodd" d="M7.42776 2.21352C7.74335 1.89794 7.74335 1.38626 7.42776 1.07068C7.11217 0.755088 6.6005 0.755087 6.28492 1.07068L3.99906 3.35653L1.71355 1.07101C1.39796 0.755422 0.886291 0.755422 0.570703 1.07101C0.255114 1.3866 0.255113 1.89827 0.570702 2.21386L2.85622 4.49937L0.570676 6.78491C0.255087 7.1005 0.255087 7.61217 0.570676 7.92776C0.886264 8.24335 1.39793 8.24335 1.71352 7.92776L3.99906 5.64222L6.28494 7.9281C6.60053 8.24369 7.1122 8.24369 7.42779 7.9281C7.74338 7.61251 7.74338 7.10084 7.42779 6.78525L5.14191 4.49937L7.42776 2.21352Z" fill="#F45454"/>
</svg>
