<svg width="18" height="18" viewBox="0 0 18 18" fill="none" xmlns="http://www.w3.org/2000/svg">
  <path opacity=".4" d="M11.625 9.863H9.998A2.421 2.421 0 0 1 7.575 7.44V5.812a.562.562 0 0 0-.563-.562H4.636C2.903 5.25 1.5 6.375 1.5 8.385v4.98c0 2.01 1.402 3.135 3.135 3.135h4.418c1.732 0 3.134-1.125 3.134-3.135v-2.94a.562.562 0 0 0-.562-.563Z" fill="#fff"/>
  <path d="M13.365 1.5H8.947C7.252 1.5 5.88 2.58 5.82 4.508c.045 0 .082-.008.127-.008h4.418c1.732 0 3.135 1.125 3.135 3.135v4.988c0 .045-.008.082-.008.12 1.673-.053 3.008-1.163 3.008-3.12V4.635c0-2.01-1.403-3.135-3.135-3.135Z" fill="#fff"/>
  <path d="M8.985 5.362c-.233-.232-.63-.075-.63.248v1.965c0 .825.697 1.5 1.552 1.5.533.008 1.275.008 1.913.008.322 0 .487-.376.262-.6-.817-.818-2.272-2.28-3.097-3.12Z" fill="#fff"/>
</svg>
