<svg width="19" height="19" viewBox="0 0 19 19" fill="none" xmlns="http://www.w3.org/2000/svg">
<path d="M7.25 13.8125C7.175 13.8125 7.1075 13.7975 7.0325 13.7675C6.8225 13.685 6.6875 13.475 6.6875 13.25V8.75C6.6875 8.4425 6.9425 8.1875 7.25 8.1875C7.5575 8.1875 7.8125 8.4425 7.8125 8.75V11.8925L8.3525 11.3525C8.57 11.135 8.93 11.135 9.1475 11.3525C9.365 11.57 9.365 11.93 9.1475 12.1475L7.6475 13.6475C7.5425 13.7525 7.3925 13.8125 7.25 13.8125Z" fill="white"/>
<path d="M7.25008 13.8126C7.10758 13.8126 6.96508 13.7601 6.85258 13.6476L5.35258 12.1476C5.13508 11.9301 5.13508 11.5701 5.35258 11.3526C5.57008 11.1351 5.93008 11.1351 6.14758 11.3526L7.64758 12.8526C7.86508 13.0701 7.86508 13.4301 7.64758 13.6476C7.53508 13.7601 7.39258 13.8126 7.25008 13.8126Z" fill="white"/>
<path d="M11.75 17.5625H7.25C3.1775 17.5625 1.4375 15.8225 1.4375 11.75V7.25C1.4375 3.1775 3.1775 1.4375 7.25 1.4375H11C11.3075 1.4375 11.5625 1.6925 11.5625 2C11.5625 2.3075 11.3075 2.5625 11 2.5625H7.25C3.7925 2.5625 2.5625 3.7925 2.5625 7.25V11.75C2.5625 15.2075 3.7925 16.4375 7.25 16.4375H11.75C15.2075 16.4375 16.4375 15.2075 16.4375 11.75V8C16.4375 7.6925 16.6925 7.4375 17 7.4375C17.3075 7.4375 17.5625 7.6925 17.5625 8V11.75C17.5625 15.8225 15.8225 17.5625 11.75 17.5625Z" fill="white"/>
<path d="M17 8.56335H14C11.435 8.56335 10.4375 7.56585 10.4375 5.00085V2.00085C10.4375 1.77585 10.5725 1.56585 10.7825 1.48335C10.9925 1.39335 11.2325 1.44585 11.3975 1.60335L17.3975 7.60335C17.555 7.76085 17.6075 8.00835 17.5175 8.21835C17.4275 8.42835 17.225 8.56335 17 8.56335ZM11.5625 3.35835V5.00085C11.5625 6.93585 12.065 7.43835 14 7.43835H15.6425L11.5625 3.35835Z" fill="white"/>
</svg>
