<svg width="19" height="19" viewBox="0 0 19 19" fill="none" xmlns="http://www.w3.org/2000/svg">
<path d="M13.0625 6.3125H5.9375C5.63 6.3125 5.375 6.0575 5.375 5.75V4.25C5.375 2.33 6.2675 1.4375 8.1875 1.4375H10.8125C12.7325 1.4375 13.625 2.33 13.625 4.25V5.75C13.625 6.0575 13.37 6.3125 13.0625 6.3125ZM6.5 5.1875H12.5V4.25C12.5 2.975 12.0875 2.5625 10.8125 2.5625H8.1875C6.9125 2.5625 6.5 2.975 6.5 4.25V5.1875Z" fill="white"/>
<path d="M10.25 17.5625H8.75C6.935 17.5625 5.9375 16.565 5.9375 14.75V11.75C5.9375 11.4425 6.1925 11.1875 6.5 11.1875H12.5C12.8075 11.1875 13.0625 11.4425 13.0625 11.75V14.75C13.0625 16.565 12.065 17.5625 10.25 17.5625ZM7.0625 12.3125V14.75C7.0625 15.935 7.565 16.4375 8.75 16.4375H10.25C11.435 16.4375 11.9375 15.935 11.9375 14.75V12.3125H7.0625Z" fill="white"/>
<path d="M14 14.5625H12.5C12.1925 14.5625 11.9375 14.3075 11.9375 14V12.3125H7.0625V14C7.0625 14.3075 6.8075 14.5625 6.5 14.5625H5C3.185 14.5625 2.1875 13.565 2.1875 11.75V8C2.1875 6.185 3.185 5.1875 5 5.1875H14C15.815 5.1875 16.8125 6.185 16.8125 8V11.75C16.8125 13.565 15.815 14.5625 14 14.5625ZM13.0625 13.4375H14C15.185 13.4375 15.6875 12.935 15.6875 11.75V8C15.6875 6.815 15.185 6.3125 14 6.3125H5C3.815 6.3125 3.3125 6.815 3.3125 8V11.75C3.3125 12.935 3.815 13.4375 5 13.4375H5.9375V11.75C5.9375 11.4425 6.1925 11.1875 6.5 11.1875H12.5C12.8075 11.1875 13.0625 11.4425 13.0625 11.75V13.4375Z" fill="white"/>
<path d="M13.25 12.3125H5.75C5.4425 12.3125 5.1875 12.0575 5.1875 11.75C5.1875 11.4425 5.4425 11.1875 5.75 11.1875H13.25C13.5575 11.1875 13.8125 11.4425 13.8125 11.75C13.8125 12.0575 13.5575 12.3125 13.25 12.3125Z" fill="white"/>
<path d="M8 9.3125H5.75C5.4425 9.3125 5.1875 9.0575 5.1875 8.75C5.1875 8.4425 5.4425 8.1875 5.75 8.1875H8C8.3075 8.1875 8.5625 8.4425 8.5625 8.75C8.5625 9.0575 8.3075 9.3125 8 9.3125Z" fill="white"/>
</svg>
