<svg width="19" height="19" viewBox="0 0 19 19" fill="none" xmlns="http://www.w3.org/2000/svg">
<path d="M11.75 17.5625H7.25C3.1775 17.5625 1.4375 15.8225 1.4375 11.75V7.25C1.4375 3.1775 3.1775 1.4375 7.25 1.4375H11.75C15.8225 1.4375 17.5625 3.1775 17.5625 7.25V11.75C17.5625 15.8225 15.8225 17.5625 11.75 17.5625ZM7.25 2.5625C3.7925 2.5625 2.5625 3.7925 2.5625 7.25V11.75C2.5625 15.2075 3.7925 16.4375 7.25 16.4375H11.75C15.2075 16.4375 16.4375 15.2075 16.4375 11.75V7.25C16.4375 3.7925 15.2075 2.5625 11.75 2.5625H7.25Z" fill="white"/>
<path d="M12.125 14.9375C10.985 14.9375 10.0625 14.015 10.0625 12.875V6.125C10.0625 4.985 10.985 4.0625 12.125 4.0625C13.265 4.0625 14.1875 4.985 14.1875 6.125V12.875C14.1875 14.015 13.265 14.9375 12.125 14.9375ZM12.125 5.1875C11.6075 5.1875 11.1875 5.6075 11.1875 6.125V12.875C11.1875 13.3925 11.6075 13.8125 12.125 13.8125C12.6425 13.8125 13.0625 13.3925 13.0625 12.875V6.125C13.0625 5.6075 12.6425 5.1875 12.125 5.1875Z" fill="white"/>
<path d="M6.875 14.9375C5.735 14.9375 4.8125 14.015 4.8125 12.875V10.25C4.8125 9.11 5.735 8.1875 6.875 8.1875C8.015 8.1875 8.9375 9.11 8.9375 10.25V12.875C8.9375 14.015 8.015 14.9375 6.875 14.9375ZM6.875 9.3125C6.3575 9.3125 5.9375 9.7325 5.9375 10.25V12.875C5.9375 13.3925 6.3575 13.8125 6.875 13.8125C7.3925 13.8125 7.8125 13.3925 7.8125 12.875V10.25C7.8125 9.7325 7.3925 9.3125 6.875 9.3125Z" fill="white"/>
</svg>
