<svg width="18" height="19" viewBox="0 0 18 19" fill="none" xmlns="http://www.w3.org/2000/svg">
<path d="M10.5001 13.183C10.3576 13.183 10.2151 13.1305 10.1026 13.018L7.13261 10.048C6.91511 9.83047 6.91511 9.47047 7.13261 9.25297C7.35011 9.03547 7.71011 9.03547 7.92761 9.25297L10.8976 12.223C11.1151 12.4405 11.1151 12.8005 10.8976 13.018C10.7851 13.123 10.6426 13.183 10.5001 13.183Z" fill="white"/>
<path d="M7.50008 13.2123C7.35758 13.2123 7.21508 13.1598 7.10258 13.0473C6.88508 12.8298 6.88508 12.4698 7.10258 12.2523L10.0726 9.28227C10.2901 9.06477 10.6501 9.06477 10.8676 9.28227C11.0851 9.49977 11.0851 9.85977 10.8676 10.0773L7.89758 13.0473C7.78508 13.1598 7.64258 13.2123 7.50008 13.2123Z" fill="white"/>
<path d="M10.5 5.5625H7.5C6.78 5.5625 5.4375 5.5625 5.4375 3.5C5.4375 1.4375 6.78 1.4375 7.5 1.4375H10.5C11.22 1.4375 12.5625 1.4375 12.5625 3.5C12.5625 4.22 12.5625 5.5625 10.5 5.5625ZM7.5 2.5625C6.7575 2.5625 6.5625 2.5625 6.5625 3.5C6.5625 4.4375 6.7575 4.4375 7.5 4.4375H10.5C11.4375 4.4375 11.4375 4.2425 11.4375 3.5C11.4375 2.5625 11.2425 2.5625 10.5 2.5625H7.5Z" fill="white"/>
<path d="M11.25 17.5618H6.75C2.535 17.5618 1.6875 15.6268 1.6875 12.4993V7.99934C1.6875 4.57934 2.925 3.11684 5.97 2.95934C6.285 2.94434 6.5475 3.17684 6.5625 3.49184C6.5775 3.80684 6.3375 4.06184 6.03 4.07684C3.9 4.19684 2.8125 4.83434 2.8125 7.99934V12.4993C2.8125 15.2743 3.36 16.4368 6.75 16.4368H11.25C14.64 16.4368 15.1875 15.2743 15.1875 12.4993V7.99934C15.1875 4.83434 14.1 4.19684 11.97 4.07684C11.6625 4.06184 11.4225 3.79184 11.4375 3.48434C11.4525 3.17684 11.7225 2.93684 12.03 2.95184C15.075 3.11684 16.3125 4.57934 16.3125 7.99184V12.4918C16.3125 15.6268 15.465 17.5618 11.25 17.5618Z" fill="white"/>
</svg>
