<svg width="20" height="20" viewBox="0 0 20 20" fill="none" xmlns="http://www.w3.org/2000/svg">
<path d="M9.10815 18.9586C8.70815 18.9586 8.30818 18.8586 7.94152 18.6586C7.19985 18.2419 6.75815 17.5003 6.75815 16.6586V12.2003C6.75815 11.7753 6.48314 11.1503 6.2248 10.8253L3.05815 7.50027C2.53315 6.97527 2.12482 6.0586 2.12482 5.3836V3.45028C2.12482 2.10862 3.1415 1.05859 4.43317 1.05859H15.5498C16.8248 1.05859 17.8582 2.09194 17.8582 3.36694V5.21694C17.8582 6.09194 17.3332 7.10026 16.8332 7.59192C16.5915 7.83359 16.1915 7.83359 15.9498 7.59192C15.7082 7.35026 15.7082 6.95026 15.9498 6.70859C16.2582 6.40026 16.6082 5.70861 16.6082 5.21694V3.36694C16.6082 2.78361 16.1331 2.30859 15.5498 2.30859H4.43317C3.8415 2.30859 3.37482 2.80862 3.37482 3.45028V5.3836C3.37482 5.69193 3.62482 6.30028 3.94982 6.62528L7.15818 10.0003C7.58318 10.5253 7.99981 11.4086 7.99981 12.2003V16.6586C7.99981 17.2086 8.37483 17.4753 8.54149 17.5669C8.89983 17.7669 9.32485 17.7586 9.65818 17.5586L10.8248 16.8086C11.0665 16.6669 11.2998 16.2086 11.2998 15.9003C11.2998 15.5586 11.5832 15.2753 11.9248 15.2753C12.2665 15.2753 12.5498 15.5586 12.5498 15.9003C12.5498 16.6503 12.0831 17.5086 11.4915 17.8669L10.3332 18.6169C9.95818 18.8419 9.53315 18.9586 9.10815 18.9586Z" fill="#5584FF"/>
<path d="M13.3918 14.39C11.5751 14.39 10.1001 12.915 10.1001 11.0983C10.1001 9.28165 11.5751 7.80664 13.3918 7.80664C15.2084 7.80664 16.6835 9.28165 16.6835 11.0983C16.6835 12.915 15.2084 14.39 13.3918 14.39ZM13.3918 9.05664C12.2668 9.05664 11.3501 9.97332 11.3501 11.0983C11.3501 12.2233 12.2668 13.14 13.3918 13.14C14.5168 13.14 15.4335 12.2233 15.4335 11.0983C15.4335 9.97332 14.5168 9.05664 13.3918 9.05664Z" fill="#5584FF"/>
<path d="M16.5583 14.8918C16.4 14.8918 16.2417 14.8335 16.1167 14.7085L15.2834 13.8751C15.0417 13.6335 15.0417 13.2335 15.2834 12.9918C15.525 12.7501 15.925 12.7501 16.1667 12.9918L17 13.8251C17.2417 14.0668 17.2417 14.4668 17 14.7085C16.8834 14.8251 16.7167 14.8918 16.5583 14.8918Z" fill="#5584FF"/>
</svg>
