<svg width="17" height="18" viewBox="0 0 17 18" fill="none" xmlns="http://www.w3.org/2000/svg">
<path d="M12.042 16.6139H4.95866C1.83491 16.6139 0.885742 15.6648 0.885742 12.541V5.45768C0.885742 2.33393 1.83491 1.38477 4.95866 1.38477H6.02116C7.26074 1.38477 7.65033 1.78852 8.14616 2.44727L9.20866 3.86393C9.44241 4.1756 9.47783 4.2181 9.91699 4.2181H12.042C15.1657 4.2181 16.1149 5.16727 16.1149 8.29102V12.541C16.1149 15.6648 15.1657 16.6139 12.042 16.6139ZM4.95866 2.44727C2.42283 2.44727 1.94824 2.92893 1.94824 5.45768V12.541C1.94824 15.0698 2.42283 15.5514 4.95866 15.5514H12.042C14.5778 15.5514 15.0524 15.0698 15.0524 12.541V8.29102C15.0524 5.76227 14.5778 5.2806 12.042 5.2806H9.91699C9.01033 5.2806 8.71283 4.96893 8.35866 4.50143L7.29616 3.08477C6.92783 2.59602 6.81449 2.44727 6.02116 2.44727H4.95866Z" fill="#7AC943"/>
<path d="M14.167 5.54977C13.8766 5.54977 13.6357 5.30893 13.6357 5.01852V4.04102C13.6357 2.92185 13.1612 2.44727 12.042 2.44727H5.66699C5.37658 2.44727 5.13574 2.20643 5.13574 1.91602C5.13574 1.6256 5.37658 1.38477 5.66699 1.38477H12.042C13.7562 1.38477 14.6982 2.32685 14.6982 4.04102V5.01852C14.6982 5.30893 14.4574 5.54977 14.167 5.54977Z" fill="#7AC943"/>
</svg>
