<svg width="774" height="99" viewBox="0 0 774 99" fill="none" xmlns="http://www.w3.org/2000/svg">
<g opacity="0.9">
<path d="M22.9516 95.8662H0V25.7466C0.0106743 22.5824 0.600192 19.447 1.73923 16.4964C2.86393 13.4979 4.5004 10.7187 6.57535 8.28346C8.61996 5.88354 11.0919 3.88642 13.865 2.39415C16.6575 0.88461 19.7841 0.105357 22.956 0.128355C26.2143 0.103246 29.4201 0.951533 32.2423 2.58556C35.1185 4.2618 37.7269 6.36267 39.98 8.81762C42.3191 11.3436 44.3739 14.1203 46.1073 17.0974C47.7513 19.8796 49.1954 22.776 50.4287 25.7644L70.2879 74.2854L90.533 25.7644C91.7576 22.7837 93.1791 19.8882 94.7879 17.0974C96.475 14.1071 98.5013 11.3227 100.826 8.79981C103.079 6.34481 105.688 4.24394 108.564 2.56776C111.429 0.922548 114.679 0.0742771 117.979 0.110546C121.26 0.0759775 124.505 0.807479 127.456 2.24725C130.263 3.61777 132.749 5.56871 134.75 7.97185C136.766 10.4146 138.337 13.1948 139.391 16.1848C140.502 19.2541 141.07 22.4946 141.068 25.7599V95.8662H117.997V25.7466L95.165 75.8123C93.6151 79.2548 92.0888 82.3812 90.5862 85.1915C89.2362 87.7809 87.5455 90.1765 85.5593 92.3139C83.7401 94.2287 81.5451 95.7444 79.1127 96.7654C76.6606 97.8129 73.7146 98.3367 70.2746 98.3367C67.4003 98.3702 64.5633 97.6816 62.0221 96.3336C59.4934 94.9715 57.1888 93.2269 55.1894 91.161C53.0743 88.9793 51.2341 86.5454 49.71 83.914C48.1506 81.2625 46.7505 78.52 45.5172 75.701L22.9516 25.7466V95.8662Z" fill="#5584FF"/>
<path d="M295.075 0.129883V24.84H192.034C189.455 24.84 187.843 25.6502 187.198 27.2705C186.542 29.0268 186.225 30.8928 186.266 32.7681V35.8351H295.097V60.5453H186.395V62.7265C186.335 64.7121 186.664 66.6902 187.362 68.549C188.007 70.1011 189.576 70.8771 192.07 70.8771H295.097V95.8455H192.034C187.798 95.8971 183.588 95.173 179.611 93.7087C175.993 92.3629 172.698 90.2684 169.939 87.5613C167.193 84.8325 165.06 81.5467 163.683 77.9238C162.181 73.9434 161.438 69.7154 161.491 65.4597V30.7916C161.468 26.6883 162.256 22.6211 163.812 18.8261C165.283 15.1865 167.476 11.8849 170.258 9.12185C173.051 6.37774 176.332 4.18378 179.931 2.65387C183.759 1.03268 187.879 0.217544 192.034 0.258973L295.075 0.129883Z" fill="#5584FF"/>
<path d="M315.519 0.521484H450.784V24.7108H395.324V95.8675H370.824V24.7108H315.519V0.521484Z" fill="#5584FF"/>
<path d="M585.182 0C591.455 0 596.312 0.73301 599.752 2.19903C603.192 3.66505 605.706 5.7424 607.295 8.43109C608.883 11.102 609.807 14.2937 610.068 18.0062C610.328 21.7187 610.457 25.7725 610.454 30.1676C610.454 34.3936 610.325 38.3391 610.068 42.0041C609.892 45.3874 608.943 48.6847 607.295 51.6415C605.703 54.4044 603.189 56.5827 599.752 58.1763C596.315 59.7699 591.458 60.5682 585.182 60.5712H496.734V95.8892H471.205V0H585.182ZM496.734 24.7101V36.8716H578.487C580.119 36.8716 581.409 36.5258 582.355 35.8344C583.3 35.1446 584 34.1697 584.352 33.0522C584.76 31.7743 584.998 30.4483 585.062 29.1082C585.148 27.6422 585.191 26.1761 585.191 24.7101H496.734Z" fill="#5584FF"/>
<path d="M705.288 96.3841H630.874V0.129883H656.403V36.2269H708.11C712.185 36.2172 716.22 37.0317 719.974 38.6218C727.386 41.6888 733.356 47.4708 736.674 54.794C738.361 58.5087 739.22 62.5483 739.189 66.6304C739.225 70.7906 738.252 74.8971 736.354 78.596C734.497 82.2203 731.932 85.4328 728.812 88.042C725.593 90.718 721.926 92.7981 717.982 94.1851C713.909 95.6495 709.614 96.3936 705.288 96.3841ZM656.408 72.0746H713.917V59.8998H656.408V72.0746ZM773.49 0.143237V96.6423H750.153V0.129883L773.49 0.143237Z" fill="#5584FF"/>
</g>
</svg>
