<svg width="30" height="31" viewBox="0 0 30 31" fill="none" xmlns="http://www.w3.org/2000/svg">
<path d="M15.025 25.9965C12.1125 25.9965 9.19999 25.534 6.43749 24.609C5.38749 24.2465 4.58749 23.509 4.23749 22.5465C3.87499 21.584 3.99999 20.5215 4.57499 19.5715L6.01249 17.184C6.31249 16.684 6.58749 15.684 6.58749 15.0965V11.484C6.58749 6.83401 10.375 3.04651 15.025 3.04651C19.675 3.04651 23.4625 6.83401 23.4625 11.484V15.0965C23.4625 15.6715 23.7375 16.684 24.0375 17.1965L25.4625 19.5715C26 20.4715 26.1 21.559 25.7375 22.5465C25.375 23.534 24.5875 24.284 23.6 24.609C20.85 25.534 17.9375 25.9965 15.025 25.9965ZM15.025 4.92151C11.4125 4.92151 8.46249 7.85901 8.46249 11.484V15.0965C8.46249 16.009 8.08749 17.359 7.62499 18.1465L6.18749 20.534C5.91249 20.9965 5.83749 21.484 5.99999 21.8965C6.14999 22.3215 6.52499 22.6465 7.03749 22.8215C12.2625 24.5715 17.8 24.5715 23.025 22.8215C23.475 22.6715 23.825 22.334 23.9875 21.884C24.15 21.434 24.1125 20.9465 23.8625 20.534L22.425 18.1465C21.95 17.334 21.5875 15.9965 21.5875 15.084V11.484C21.5875 7.85901 18.65 4.92151 15.025 4.92151Z" fill="#E0E3ED"/>
<path d="M17.35 5.25896C17.2625 5.25896 17.175 5.24646 17.0875 5.22146C16.725 5.12146 16.375 5.04646 16.0375 4.99646C14.975 4.85896 13.95 4.93396 12.9875 5.22146C12.6375 5.33396 12.2625 5.22146 12.025 4.95896C11.7875 4.69646 11.7125 4.32146 11.85 3.98396C12.3625 2.67146 13.6125 1.80896 15.0375 1.80896C16.4625 1.80896 17.7125 2.65896 18.225 3.98396C18.35 4.32146 18.2875 4.69646 18.05 4.95896C17.8625 5.15896 17.6 5.25896 17.35 5.25896Z" fill="#E0E3ED"/>
<path d="M15.025 28.8464C13.7875 28.8464 12.5875 28.3464 11.7125 27.4714C10.8375 26.5964 10.3375 25.3964 10.3375 24.1589H12.2125C12.2125 24.8964 12.5125 25.6214 13.0375 26.1464C13.5625 26.6714 14.2875 26.9714 15.025 26.9714C16.575 26.9714 17.8375 25.7089 17.8375 24.1589H19.7125C19.7125 26.7464 17.6125 28.8464 15.025 28.8464Z" fill="#E0E3ED"/>
</svg>
