<svg width="24" height="25" viewBox="0 0 24 25" fill="none" xmlns="http://www.w3.org/2000/svg">
<path d="M8 11.7342C8 12.5042 8.6 13.1342 9.33 13.1342H10.83C11.47 13.1342 11.99 12.5842 11.99 11.9142C11.99 11.1842 11.67 10.9242 11.2 10.7542L8.8 9.91418C8.32 9.74418 8 9.48418 8 8.75418C8 8.08418 8.52 7.53418 9.16 7.53418H10.66C11.4 7.54418 12 8.16418 12 8.93418" stroke="#545E79" stroke-width="1.5" stroke-linecap="round" stroke-linejoin="round"/>
<path d="M10 13.1836V13.9236" stroke="#545E79" stroke-width="1.5" stroke-linecap="round" stroke-linejoin="round"/>
<path d="M10 6.74414V7.52414" stroke="#545E79" stroke-width="1.5" stroke-linecap="round" stroke-linejoin="round"/>
<path d="M6.07 3.35398C7.23 2.70398 8.56 2.33398 9.99 2.33398C14.4 2.33398 17.98 5.91398 17.98 10.324C17.98 14.734 14.4 18.314 9.99 18.314C5.58 18.314 2 14.734 2 10.324C2 9.09398 2.28 7.92398 2.78 6.88398" stroke="#545E79" stroke-width="1.5" stroke-linecap="round" stroke-linejoin="round"/>
<path d="M12.98 20.214C13.88 21.484 15.35 22.314 17.03 22.314C19.76 22.314 21.98 20.094 21.98 17.364C21.98 15.704 21.16 14.234 19.91 13.334" stroke="#545E79" stroke-width="1.5" stroke-linecap="round" stroke-linejoin="round"/>
</svg>
