<svg width="20" height="20" viewBox="0 0 20 20" fill="none" xmlns="http://www.w3.org/2000/svg">
  <path d="M10.355 12.15c.284.24.52.417.712.547l-.06.252a7.84 7.84 0 0 1-.824-.621 25.593 25.593 0 0 1-1.329-1.231c-.4-.408-.8-.84-1.216-1.323-.37-.433-.624-.786-.776-1.062l-.077-.193a.988.988 0 0 1-.043-.26.57.57 0 0 1 .17-.422l.007-.007.622-.647c.185-.186.337-.374.446-.559.104-.17.163-.35.163-.54 0-.162-.052-.332-.105-.46l-.004-.008a2.871 2.871 0 0 0-.319-.534l-1.93-2.73-.002-.001a1.268 1.268 0 0 0-.503-.42l-.012-.006a1.543 1.543 0 0 0-.617-.133c-.62 0-1.163.275-1.637.738-.43.404-.74.855-.935 1.352a4.134 4.134 0 0 0-.294 1.568c0 .853.201 1.76.59 2.678.391.923.936 1.873 1.622 2.816a23.555 23.555 0 0 0 2.307 2.708l.004.003c.85.843 1.77 1.625 2.715 2.315a14.036 14.036 0 0 0 2.842 1.632c1.49.636 2.973.823 4.244.293a3.575 3.575 0 0 0 1.321-.951 3.2 3.2 0 0 0 .548-.822c.13-.271.198-.561.198-.855 0-.204-.04-.406-.134-.62l-.005-.01-.005-.01a1.125 1.125 0 0 0-.394-.437l-2.764-1.964-.002-.002a2.89 2.89 0 0 0-.555-.311h-.001a1.993 1.993 0 0 1-.052-.023l-.002-.001c-.019-.008-.045-.02-.073-.03a.872.872 0 0 0-.255-.064c-.226-.018-.42.064-.593.168a2.418 2.418 0 0 0-.592.457l-.001.001-.629.62v.002a.575.575 0 0 1-.12.088l.177-.46.013-.031.389-.384.002-.002c.234-.234.443-.39.626-.485l.017-.009.016-.01c.311-.192.724-.24 1.17-.055a3.296 3.296 0 0 1 .606.34l2.763 1.964.01.007a1.3 1.3 0 0 1 .484.566c.103.264.146.492.146.711 0 .324-.074.652-.22.964l.453.211-.453-.211c-.153.33-.342.612-.582.873l-.002.003c-.431.476-.887.803-1.408 1.013a4.42 4.42 0 0 1-1.671.322c-.862 0-1.787-.206-2.764-.618-.96-.408-1.935-.971-2.892-1.661a25.517 25.517 0 0 1-2.75-2.342 24.403 24.403 0 0 1-2.34-2.739c-.698-.974-1.252-1.941-1.643-2.867-.412-.982-.611-1.916-.611-2.781 0-.589.105-1.143.307-1.659a3.952 3.952 0 0 1 .992-1.434l.01-.01c.56-.553 1.172-.805 1.807-.805.253 0 .513.059.73.16l.003.002c.248.114.448.281.593.498l.004.006.004.006L7.926 4.94l.002.004c.157.216.267.413.34.598l.003.008.004.008c.086.2.125.382.125.543 0 .216-.062.437-.195.66l-.005.007-.004.007a2.846 2.846 0 0 1-.474.597l-.008.008-.567.592-.208.218.095.286c.02.059.041.101.051.122l.001.002.006.012.007.012c.12.209.34.534.737 1.001l.004.005c.411.47.802.903 1.194 1.304l.007.007c.494.485.914.88 1.314 1.21Zm.689.822.755.234a.684.684 0 0 1-.346-.02l-.19-.085a3.983 3.983 0 0 1-.219-.129Z" fill="#292D32" stroke="#5584FF"/>
</svg>
