<svg width="59" height="60" viewBox="0 0 59 60" fill="none" xmlns="http://www.w3.org/2000/svg">
<path d="M34.9089 31.1465H22.6172C21.6093 31.1465 20.7734 30.3107 20.7734 29.3027C20.7734 28.2948 21.6093 27.459 22.6172 27.459H34.9089C35.9168 27.459 36.7526 28.2948 36.7526 29.3027C36.7526 30.3107 35.9168 31.1465 34.9089 31.1465Z" fill="#5584FF"/>
<path d="M28.2702 54.0091C14.3806 54.0091 3.07227 42.7008 3.07227 28.8112C3.07227 14.9216 14.3806 3.61328 28.2702 3.61328C42.1598 3.61328 53.4681 14.9216 53.4681 28.8112C53.4681 42.7008 42.1598 54.0091 28.2702 54.0091ZM28.2702 7.30078C16.3964 7.30078 6.75977 16.962 6.75977 28.8112C6.75977 40.6604 16.3964 50.3216 28.2702 50.3216C40.1439 50.3216 49.7806 40.6604 49.7806 28.8112C49.7806 16.962 40.1439 7.30078 28.2702 7.30078Z" fill="#5584FF"/>
<path d="M54.0843 56.4691C53.6173 56.4691 53.1502 56.297 52.7814 55.9283L47.8648 51.0116C47.1518 50.2987 47.1518 49.1187 47.8648 48.4058C48.5777 47.6929 49.7577 47.6929 50.4706 48.4058L55.3873 53.3224C56.1002 54.0354 56.1002 55.2154 55.3873 55.9283C55.0185 56.297 54.5514 56.4691 54.0843 56.4691Z" fill="#5584FF"/>
</svg>
