<svg width="18" height="18" viewBox="0 0 18 18" fill="none" xmlns="http://www.w3.org/2000/svg">
<path d="M15.7507 5.04785C15.7357 5.04785 15.7132 5.04785 15.6907 5.04785C11.7232 4.65035 7.76323 4.50035 3.84073 4.89785L2.31073 5.04785C1.99573 5.07785 1.71823 4.85285 1.68823 4.53785C1.65823 4.22285 1.88323 3.95285 2.19073 3.92285L3.72073 3.77285C7.71073 3.36785 11.7532 3.52535 15.8032 3.92285C16.1107 3.95285 16.3357 4.23035 16.3057 4.53785C16.2832 4.83035 16.0357 5.04785 15.7507 5.04785Z" fill="#5584FF"/>
<path d="M6.37556 4.29C6.34556 4.29 6.31556 4.29 6.27806 4.2825C5.97806 4.23 5.76806 3.9375 5.82056 3.6375L5.98556 2.655C6.10556 1.935 6.27056 0.9375 8.01806 0.9375H9.98306C11.7381 0.9375 11.9031 1.9725 12.0156 2.6625L12.1806 3.6375C12.2331 3.945 12.0231 4.2375 11.7231 4.2825C11.4156 4.335 11.1231 4.125 11.0781 3.825L10.9131 2.85C10.8081 2.1975 10.7856 2.07 9.99056 2.07H8.02556C7.23056 2.07 7.21556 2.175 7.10306 2.8425L6.93056 3.8175C6.88556 4.095 6.64556 4.29 6.37556 4.29Z" fill="#5584FF"/>
<path d="M11.4078 17.0627H6.59279C3.97529 17.0627 3.87029 15.6152 3.78779 14.4452L3.30029 6.89268C3.27779 6.58518 3.51779 6.31518 3.82529 6.29268C4.14029 6.27768 4.40279 6.51018 4.42529 6.81768L4.91279 14.3702C4.99529 15.5102 5.02529 15.9377 6.59279 15.9377H11.4078C12.9828 15.9377 13.0128 15.5102 13.0878 14.3702L13.5753 6.81768C13.5978 6.51018 13.8678 6.27768 14.1753 6.29268C14.4828 6.31518 14.7228 6.57768 14.7003 6.89268L14.2128 14.4452C14.1303 15.6152 14.0253 17.0627 11.4078 17.0627Z" fill="#5584FF"/>
<path d="M10.2455 12.9375H7.74805C7.44055 12.9375 7.18555 12.6825 7.18555 12.375C7.18555 12.0675 7.44055 11.8125 7.74805 11.8125H10.2455C10.553 11.8125 10.808 12.0675 10.808 12.375C10.808 12.6825 10.553 12.9375 10.2455 12.9375Z" fill="#5584FF"/>
<path d="M10.875 9.9375H7.125C6.8175 9.9375 6.5625 9.6825 6.5625 9.375C6.5625 9.0675 6.8175 8.8125 7.125 8.8125H10.875C11.1825 8.8125 11.4375 9.0675 11.4375 9.375C11.4375 9.6825 11.1825 9.9375 10.875 9.9375Z" fill="#5584FF"/>
</svg>
